<svg id="svg" version="1.1" width="400" height="105.43274634694642" viewBox="0 0 400 105.43274634694642" xmlns="http://www.w3.org/2000/svg" xmlns:xlink="http://www.w3.org/1999/xlink" ><g id="svgg"><path id="path0" d="M52.602 26.889 C 50.633 28.858,52.320 32.451,54.667 31.289 C 56.162 30.548,56.067 26.500,54.554 26.500 C 54.433 26.500,54.333 26.425,54.333 26.333 C 54.333 25.862,53.296 26.196,52.602 26.889 M45.565 27.492 C 44.440 27.759,43.606 28.729,43.213 30.225 C 42.280 33.785,45.916 37.246,48.465 35.224 C 51.529 32.793,49.215 26.623,45.565 27.492 M59.169 27.630 C 56.890 28.792,57.800 33.013,60.129 32.078 C 60.470 31.941,60.913 31.586,61.113 31.289 C 62.414 29.357,61.001 26.697,59.169 27.630 M64.286 30.296 C 63.705 30.656,63.167 31.745,63.167 32.561 C 63.167 34.269,64.621 35.078,65.843 34.049 C 67.861 32.352,66.452 28.954,64.286 30.296 M215.167 32.414 C 204.833 34.179,196.457 41.954,197.462 48.848 C 197.877 51.695,199.194 52.951,202.155 53.322 C 203.831 53.532,203.735 53.596,203.330 52.533 C 201.036 46.494,205.825 37.870,212.375 36.244 L 212.833 36.131 212.833 56.565 L 212.833 77.000 217.144 77.000 L 221.455 77.000 221.751 76.208 C 221.915 75.773,224.106 70.242,226.622 63.917 C 229.138 57.592,231.686 51.179,232.284 49.667 C 232.883 48.154,233.439 46.845,233.520 46.758 C 233.605 46.667,233.667 53.018,233.667 61.800 L 233.667 77.000 237.920 77.000 C 242.174 77.000,242.174 77.000,242.331 76.625 C 242.418 76.419,242.983 74.900,243.588 73.250 C 244.192 71.600,244.985 69.462,245.349 68.500 C 245.714 67.537,246.306 65.962,246.667 65.000 C 247.027 64.037,247.619 62.462,247.983 61.500 C 248.347 60.538,249.243 58.137,249.974 56.167 C 253.074 47.816,255.063 42.472,255.683 40.833 C 256.047 39.871,256.640 38.296,257.002 37.333 C 257.363 36.371,257.912 34.908,258.222 34.083 L 258.787 32.583 256.788 32.536 C 255.688 32.511,254.755 32.522,254.715 32.562 C 254.675 32.603,254.353 33.449,253.998 34.443 C 253.644 35.437,252.895 37.525,252.332 39.083 C 251.770 40.642,251.059 42.629,250.754 43.500 C 250.448 44.371,249.847 46.058,249.418 47.250 C 248.989 48.442,248.389 50.129,248.085 51.000 C 247.780 51.871,247.067 53.858,246.500 55.417 C 245.933 56.975,245.219 58.962,244.913 59.833 C 244.607 60.704,243.934 62.579,243.417 64.000 C 242.899 65.421,242.322 67.033,242.133 67.583 C 241.944 68.133,241.724 68.655,241.645 68.742 C 241.563 68.831,241.500 61.012,241.500 50.697 L 241.500 32.494 237.712 32.539 L 233.924 32.583 232.038 38.083 C 231.001 41.108,229.864 44.408,229.512 45.417 C 229.160 46.425,227.468 51.337,225.752 56.333 C 224.036 61.329,222.359 66.197,222.024 67.151 L 221.417 68.886 221.312 67.985 C 221.254 67.489,221.121 60.296,221.017 52.000 C 220.913 43.704,220.783 35.848,220.730 34.542 L 220.632 32.167 218.524 32.184 C 217.365 32.193,215.854 32.297,215.167 32.414 M90.370 32.512 C 79.747 33.892,70.432 43.989,73.605 50.685 C 74.406 52.376,75.491 53.057,77.788 53.311 C 79.398 53.490,79.389 53.495,78.948 52.538 C 77.609 49.638,79.004 43.220,81.659 40.059 C 83.040 38.416,87.653 35.431,88.108 35.886 C 88.188 35.965,86.947 39.851,82.831 52.417 C 82.020 54.892,80.335 60.067,79.087 63.917 C 77.839 67.767,76.552 71.690,76.227 72.636 C 75.903 73.581,75.502 74.818,75.336 75.386 C 75.170 75.953,74.981 76.548,74.916 76.708 C 74.807 76.978,74.975 77.000,77.135 77.000 L 79.472 77.000 80.056 75.208 C 80.377 74.223,81.027 72.142,81.500 70.583 C 81.973 69.025,82.610 66.962,82.916 66.000 C 83.221 65.037,83.897 62.862,84.417 61.167 C 85.347 58.131,85.765 56.795,86.862 53.333 L 87.417 51.583 87.459 64.292 L 87.502 77.000 91.559 77.000 L 95.616 77.000 95.867 76.375 C 96.006 76.031,97.903 71.325,100.084 65.917 C 102.264 60.508,104.254 55.558,104.504 54.917 C 105.745 51.742,106.883 48.994,106.936 49.047 C 106.968 49.079,106.728 50.375,106.404 51.928 C 105.087 58.221,104.480 61.104,103.668 64.917 C 103.200 67.117,102.600 69.967,102.335 71.250 C 102.070 72.533,101.698 74.276,101.510 75.123 C 101.321 75.970,101.167 76.739,101.167 76.832 C 101.167 76.941,102.660 77.000,105.403 77.000 L 109.640 77.000 109.916 75.792 C 110.068 75.127,110.409 73.533,110.674 72.250 C 110.939 70.967,111.496 68.323,111.911 66.375 C 112.627 63.021,112.952 61.498,115.000 51.917 C 115.470 49.717,116.183 46.379,116.584 44.500 C 116.986 42.621,117.659 39.471,118.081 37.500 C 118.503 35.529,118.892 33.710,118.945 33.458 L 119.042 33.000 114.370 33.000 L 109.698 33.000 109.447 33.708 C 109.309 34.098,108.821 35.392,108.364 36.583 C 106.353 41.817,105.724 43.465,104.416 46.917 C 103.652 48.933,102.338 52.383,101.496 54.583 C 100.653 56.783,99.643 59.446,99.251 60.500 C 97.857 64.246,96.864 66.809,96.688 67.111 C 96.561 67.329,96.509 62.496,96.505 50.221 L 96.500 33.026 95.958 32.849 C 94.543 32.388,92.343 32.255,90.370 32.512 M54.074 33.746 C 48.340 35.558,46.394 44.137,50.051 51.484 C 50.166 51.715,50.250 52.597,50.250 53.572 C 50.250 55.520,50.172 55.747,48.533 58.583 C 45.457 63.905,45.555 68.457,48.790 70.508 C 53.646 73.588,60.228 67.156,64.657 55.000 C 65.041 53.946,65.429 52.903,65.519 52.684 C 67.282 48.368,67.207 41.405,65.364 38.429 C 63.249 35.014,57.548 32.649,54.074 33.746 M68.417 34.324 C 67.660 34.634,66.877 36.153,67.072 36.931 C 67.465 38.496,69.281 38.534,70.251 36.999 C 71.264 35.394,70.067 33.649,68.417 34.324 M196.417 35.520 C 195.317 35.696,193.529 35.945,192.444 36.073 C 191.359 36.201,190.434 36.344,190.387 36.391 C 190.305 36.473,189.815 38.710,188.483 45.083 C 188.119 46.825,187.791 48.339,187.753 48.447 C 187.708 48.580,187.393 48.486,186.796 48.163 C 184.192 46.753,180.097 47.044,176.846 48.872 C 175.468 49.647,172.659 52.293,172.109 53.334 C 171.256 54.949,167.629 56.342,166.016 55.673 C 165.559 55.484,165.515 55.388,165.413 54.360 C 164.803 48.211,161.564 45.677,155.667 46.736 C 151.357 47.510,146.296 51.370,145.243 54.687 C 144.992 55.478,141.825 56.155,140.835 55.629 C 140.461 55.430,140.399 55.244,140.215 53.764 C 139.587 48.720,137.404 46.575,132.917 46.592 C 123.517 46.628,117.487 54.722,117.495 67.294 C 117.499 73.630,119.100 76.168,123.680 77.096 C 130.663 78.511,136.680 73.800,139.100 65.025 C 139.579 63.285,140.162 60.308,140.166 59.574 C 140.166 59.478,140.710 59.227,141.375 59.016 C 142.040 58.806,142.837 58.488,143.146 58.310 C 143.888 57.883,143.900 57.918,143.510 59.353 C 142.573 62.797,142.256 68.895,142.882 71.417 C 143.710 74.748,145.409 76.410,148.695 77.103 C 156.557 78.762,163.171 72.534,164.911 61.833 C 165.068 60.871,165.228 59.916,165.267 59.712 C 165.322 59.424,165.549 59.280,166.294 59.066 C 166.820 58.914,167.839 58.495,168.559 58.134 C 170.128 57.349,170.062 57.309,169.577 58.754 C 168.285 62.601,167.598 69.531,168.255 72.090 C 169.877 78.405,177.649 79.260,182.520 73.659 C 183.479 72.557,183.482 72.557,183.912 73.750 C 184.637 75.764,186.589 76.902,189.333 76.912 C 192.037 76.921,193.609 75.936,194.778 73.500 C 195.699 71.581,195.723 71.667,194.248 71.667 C 191.574 71.667,191.369 70.559,192.861 64.167 C 193.043 63.387,193.482 61.362,193.837 59.667 C 194.192 57.971,194.819 55.008,195.230 53.083 C 197.556 42.202,199.000 35.367,199.000 35.239 C 199.000 35.128,198.584 35.173,196.417 35.520 M296.583 35.697 C 294.658 35.966,292.825 36.239,292.509 36.302 L 291.935 36.417 291.462 38.667 C 291.005 40.842,290.484 43.284,288.936 50.500 C 288.532 52.379,287.851 55.567,287.420 57.583 C 286.990 59.600,286.336 62.637,285.966 64.333 C 285.596 66.029,285.209 68.006,285.105 68.727 L 284.917 70.037 283.840 70.688 C 282.498 71.500,281.662 71.731,280.590 71.589 C 278.149 71.265,277.861 70.312,278.823 65.750 C 279.094 64.467,279.617 61.992,279.986 60.250 C 280.354 58.508,281.028 55.321,281.483 53.167 C 281.937 51.012,282.421 48.781,282.557 48.208 L 282.804 47.167 278.504 47.167 L 274.204 47.167 274.087 47.790 C 273.920 48.677,273.867 48.714,273.318 48.323 C 270.014 45.970,263.487 47.501,259.788 51.497 C 255.138 56.518,252.587 68.774,255.116 73.938 C 257.295 78.388,263.864 78.526,268.140 74.212 C 268.997 73.348,269.719 72.666,269.746 72.696 C 269.773 72.726,269.962 73.142,270.166 73.621 C 271.332 76.355,275.790 77.780,279.194 76.507 C 280.324 76.084,282.748 74.497,284.049 73.328 C 284.581 72.850,285.040 72.488,285.069 72.522 C 285.099 72.556,285.282 72.946,285.475 73.388 C 286.354 75.402,287.710 76.352,290.315 76.779 C 293.689 77.333,295.644 76.510,300.245 72.601 C 301.206 71.785,301.196 71.760,300.731 73.750 C 300.516 74.667,300.274 75.774,300.193 76.211 L 300.044 77.006 304.310 76.961 L 308.576 76.917 308.784 76.000 C 309.005 75.032,309.821 71.158,311.086 65.083 C 311.506 63.067,311.891 61.278,311.941 61.109 C 312.071 60.671,314.232 59.695,315.333 59.576 C 318.183 59.269,319.210 61.599,318.166 66.000 C 316.484 73.088,317.981 76.177,323.432 76.869 C 326.073 77.204,328.058 76.388,331.004 73.759 L 332.049 72.827 332.609 73.659 C 336.078 78.810,345.304 77.802,351.333 71.612 C 351.929 71.001,352.459 70.500,352.511 70.500 C 352.600 70.500,351.446 76.300,351.262 76.779 C 351.193 76.959,351.974 77.000,355.505 77.000 C 357.886 77.000,359.833 76.970,359.833 76.934 C 359.833 76.804,360.999 71.173,361.837 67.250 C 362.307 65.050,362.877 62.350,363.102 61.250 C 363.552 59.053,364.640 54.066,364.759 53.661 C 364.985 52.884,367.258 51.667,368.483 51.667 C 369.517 51.667,369.753 51.893,370.007 53.125 C 370.894 57.426,376.833 55.531,376.833 50.947 C 376.833 46.759,371.878 45.886,366.852 49.190 C 365.434 50.123,365.433 50.123,365.558 49.625 C 365.609 49.419,365.761 48.781,365.894 48.208 L 366.137 47.167 361.853 47.167 L 357.569 47.167 357.360 48.125 C 357.074 49.438,355.989 54.575,355.169 58.500 C 353.664 65.700,353.516 66.073,351.191 68.538 C 345.146 74.946,338.189 73.820,338.776 66.529 C 338.902 64.961,338.944 64.905,340.100 64.770 C 343.782 64.337,349.198 60.944,350.970 57.960 C 354.547 51.937,351.764 46.637,345.022 46.629 C 338.004 46.622,332.963 52.212,331.239 61.917 C 330.920 63.711,330.800 68.998,331.050 70.257 C 331.253 71.276,329.895 71.846,328.054 71.512 C 325.977 71.137,325.691 69.878,326.765 65.833 C 327.828 61.834,327.380 59.659,325.014 57.333 C 323.518 55.863,322.431 55.339,320.581 55.195 L 319.134 55.083 324.963 51.167 L 330.792 47.250 327.692 47.205 C 324.727 47.161,324.570 47.175,324.088 47.525 C 323.810 47.726,321.603 49.434,319.182 51.321 C 313.149 56.021,313.139 56.028,313.076 55.965 C 313.045 55.934,313.306 54.598,313.656 52.996 C 314.006 51.394,314.646 48.433,315.078 46.417 C 315.510 44.400,316.188 41.250,316.584 39.417 C 317.595 34.737,317.562 35.119,316.938 35.228 C 316.423 35.318,310.720 36.101,309.403 36.262 L 308.722 36.345 308.351 38.048 C 308.146 38.984,307.686 41.137,307.327 42.833 C 306.694 45.824,305.977 49.191,304.406 56.541 C 303.990 58.489,303.316 61.658,302.908 63.583 C 301.756 69.026,301.913 68.603,300.667 69.620 C 298.410 71.461,296.278 72.043,294.639 71.265 C 293.364 70.660,293.317 69.760,294.320 65.167 C 294.711 63.379,295.366 60.342,295.777 58.417 C 296.187 56.492,296.812 53.567,297.165 51.917 C 297.519 50.267,298.158 47.267,298.587 45.250 C 299.015 43.233,299.659 40.232,300.016 38.580 C 300.374 36.928,300.667 35.484,300.667 35.371 C 300.667 35.117,300.803 35.107,296.583 35.697 M30.278 38.922 C 29.478 39.746,29.272 40.964,29.742 42.089 C 30.583 44.103,32.931 43.945,33.499 41.837 C 34.167 39.355,31.873 37.279,30.278 38.922 M24.546 39.761 C 23.152 40.859,23.583 43.398,25.284 44.108 C 27.419 45.000,28.430 41.274,26.460 39.772 C 25.740 39.223,25.232 39.220,24.546 39.761 M37.941 39.667 C 34.484 41.393,34.724 47.395,38.267 47.794 C 40.868 48.087,42.933 44.933,42.067 41.989 C 41.436 39.841,39.629 38.825,37.941 39.667 M19.380 42.170 C 18.573 42.495,18.280 44.082,18.829 45.158 C 19.861 47.181,22.167 46.825,22.167 44.642 C 22.167 42.781,20.824 41.589,19.380 42.170 M27.500 45.662 C 25.461 46.172,25.588 46.125,23.520 47.142 C 17.891 49.910,16.933 58.147,21.085 68.083 C 21.200 68.358,21.575 69.258,21.918 70.083 C 25.067 77.656,30.299 83.500,33.929 83.500 C 34.518 83.500,35.000 83.444,35.001 83.375 C 35.001 83.306,35.355 83.105,35.786 82.927 C 39.497 81.401,40.177 74.757,37.013 70.932 C 36.930 70.832,36.464 70.000,35.978 69.083 L 35.093 67.417 35.090 65.667 C 35.087 64.130,35.139 63.805,35.517 63.000 C 39.787 53.895,35.100 43.760,27.500 45.662 M15.150 46.684 C 13.682 48.256,16.236 51.280,17.751 49.764 C 18.326 49.189,18.422 48.613,18.088 47.740 C 17.510 46.226,16.064 45.706,15.150 46.684 M347.883 50.063 C 349.944 51.303,348.951 56.420,346.096 59.275 C 344.401 60.970,340.229 62.785,339.562 62.117 C 339.215 61.770,340.922 56.608,342.225 54.066 C 344.068 50.472,346.134 49.010,347.883 50.063 M134.795 50.431 C 135.865 51.132,136.158 53.083,135.265 53.563 C 132.620 54.988,132.802 60.000,135.499 60.000 C 135.900 60.000,135.908 59.909,135.220 63.237 C 133.987 69.196,131.608 72.095,128.401 71.546 C 126.061 71.145,125.412 70.063,125.427 66.583 C 125.470 56.812,130.719 47.760,134.795 50.431 M159.828 50.330 C 161.016 50.966,161.248 52.918,160.224 53.667 C 157.783 55.452,157.853 59.446,160.334 59.942 C 160.958 60.067,160.960 60.150,160.401 62.932 C 159.134 69.242,156.660 72.220,153.275 71.508 C 151.044 71.039,150.394 69.705,150.551 65.920 C 150.962 56.061,155.690 48.116,159.828 50.330 M186.228 50.987 L 187.039 51.382 186.934 52.149 C 186.877 52.571,186.485 54.492,186.063 56.417 C 184.716 62.560,184.044 65.699,183.645 67.712 L 183.256 69.674 182.260 70.777 C 180.437 72.797,178.719 73.045,177.118 71.520 C 175.558 70.035,175.617 65.174,177.264 59.451 C 179.292 52.406,182.642 49.243,186.228 50.987 M272.128 50.912 C 273.281 51.449,273.293 51.507,272.753 54.060 C 272.498 55.264,271.996 57.637,271.638 59.333 C 271.279 61.029,270.658 64.001,270.257 65.938 C 269.299 70.572,267.936 72.500,265.616 72.500 C 262.504 72.500,261.497 69.333,262.595 63.000 C 264.126 54.165,268.151 49.061,272.128 50.912 " stroke="none" fill="#fafafb" fill-rule="evenodd"></path><path id="path1" d="M0.000 52.667 L 0.000 105.333 200.000 105.333 L 400.000 105.333 400.000 52.667 L 400.000 0.000 200.000 0.000 L 0.000 0.000 0.000 52.667 M54.666 26.250 C 54.932 26.387,55.334 26.743,55.561 27.041 C 57.310 29.347,54.920 32.991,52.664 31.458 C 50.146 29.747,52.017 24.880,54.666 26.250 M47.126 27.285 C 51.355 28.618,51.017 36.167,46.728 36.167 C 41.982 36.167,41.468 27.991,46.152 27.014 C 46.190 27.006,46.628 27.128,47.126 27.285 M60.550 27.275 C 62.335 28.194,62.412 30.957,60.684 32.119 C 58.532 33.566,56.407 30.337,58.109 28.207 C 58.955 27.148,59.730 26.852,60.550 27.275 M66.485 30.243 C 67.062 30.820,67.182 32.620,66.701 33.500 C 65.628 35.465,63.235 35.166,62.903 33.025 C 62.532 30.634,64.978 28.735,66.485 30.243 M220.822 32.267 C 220.920 32.364,221.076 41.118,221.293 58.583 L 221.417 68.583 221.938 67.000 C 222.225 66.129,223.189 63.317,224.081 60.750 C 224.973 58.183,225.914 55.446,226.173 54.667 C 226.431 53.887,227.142 51.825,227.752 50.083 C 228.362 48.342,229.074 46.279,229.334 45.500 C 229.594 44.721,230.532 41.983,231.418 39.417 C 232.305 36.850,233.218 34.206,233.447 33.542 L 233.863 32.333 237.764 32.333 L 241.665 32.333 241.708 50.292 L 241.750 68.250 242.220 66.917 C 242.478 66.183,242.974 64.796,243.323 63.833 C 243.671 62.871,244.315 61.071,244.754 59.833 C 245.193 58.596,245.837 56.796,246.187 55.833 C 246.805 54.130,248.264 50.053,249.767 45.833 C 250.175 44.688,250.725 43.150,250.989 42.417 C 251.254 41.683,251.805 40.146,252.215 39.000 C 252.624 37.854,253.332 35.904,253.788 34.667 L 254.617 32.417 256.725 32.370 C 259.345 32.312,259.331 31.574,256.835 38.167 C 256.367 39.404,255.771 41.017,255.512 41.750 C 255.253 42.483,254.852 43.571,254.621 44.167 C 254.390 44.762,253.852 46.188,253.426 47.333 C 252.241 50.517,251.275 53.085,250.600 54.852 C 250.263 55.734,249.772 57.046,249.510 57.769 C 249.247 58.492,248.639 60.133,248.160 61.417 C 247.681 62.700,246.969 64.612,246.578 65.667 C 246.187 66.721,245.522 68.502,245.100 69.625 C 244.678 70.748,244.004 72.548,243.600 73.625 C 243.197 74.702,242.731 75.940,242.564 76.375 L 242.261 77.167 237.881 77.167 L 233.500 77.167 233.497 62.125 L 233.494 47.083 231.831 51.250 C 230.917 53.542,229.970 55.904,229.728 56.500 C 229.298 57.559,228.566 59.407,227.515 62.083 C 227.228 62.817,226.774 63.942,226.507 64.583 C 226.241 65.225,225.301 67.587,224.419 69.833 C 223.537 72.079,222.511 74.648,222.139 75.542 L 221.463 77.167 217.148 77.167 L 212.833 77.167 212.833 56.750 C 212.833 37.042,212.823 36.333,212.527 36.333 C 211.312 36.333,207.394 38.866,205.957 40.580 C 203.504 43.507,202.327 49.160,203.481 52.478 C 203.936 53.787,203.966 53.760,202.293 53.527 C 198.794 53.038,197.258 51.242,197.282 47.667 C 197.329 40.710,205.928 33.494,215.667 32.239 C 217.292 32.030,220.603 32.047,220.822 32.267 M96.042 32.656 L 96.667 32.849 96.678 49.800 C 96.684 59.453,96.751 66.607,96.833 66.417 C 96.912 66.233,97.360 65.071,97.829 63.833 C 98.297 62.596,98.938 60.908,99.252 60.083 C 99.566 59.258,100.136 57.758,100.518 56.750 C 100.900 55.742,101.572 53.979,102.011 52.833 C 102.450 51.688,103.192 49.737,103.660 48.500 C 104.989 44.983,105.584 43.419,106.485 41.083 C 107.632 38.108,108.892 34.759,109.260 33.708 L 109.566 32.833 114.366 32.833 C 117.006 32.833,119.167 32.852,119.167 32.875 C 119.167 33.078,118.387 36.933,117.928 39.000 C 117.612 40.421,117.003 43.233,116.575 45.250 C 116.146 47.267,115.534 50.117,115.215 51.583 C 114.895 53.050,114.375 55.487,114.058 57.000 C 112.439 64.737,111.302 70.054,110.422 74.000 L 109.734 77.083 105.367 77.128 C 102.965 77.152,101.000 77.122,101.000 77.061 C 101.000 76.727,101.527 74.194,103.563 64.750 C 103.977 62.825,104.367 60.950,104.428 60.583 C 104.490 60.217,104.759 58.942,105.028 57.750 C 105.548 55.437,106.505 50.727,106.493 50.533 C 106.485 50.399,105.819 51.958,105.261 53.417 C 105.051 53.967,103.772 57.154,102.420 60.500 C 100.000 66.488,99.181 68.531,98.074 71.333 C 97.766 72.112,97.116 73.725,96.630 74.917 L 95.745 77.083 91.539 77.128 L 87.333 77.172 87.321 64.795 L 87.308 52.417 86.672 54.417 C 86.323 55.517,85.645 57.692,85.166 59.250 C 84.688 60.808,84.049 62.871,83.746 63.833 C 83.443 64.796,82.770 66.971,82.250 68.667 C 81.730 70.362,81.054 72.537,80.748 73.500 C 80.442 74.462,80.071 75.681,79.924 76.208 L 79.657 77.167 77.162 77.167 C 75.790 77.167,74.666 77.110,74.666 77.042 C 74.665 76.915,75.593 74.052,76.921 70.083 C 77.319 68.892,78.369 65.667,79.254 62.917 C 80.139 60.167,81.114 57.167,81.422 56.250 C 81.730 55.333,82.749 52.221,83.685 49.333 C 84.622 46.446,85.968 42.321,86.676 40.167 C 88.132 35.741,88.099 36.045,87.088 36.389 C 84.104 37.406,81.138 40.241,79.822 43.334 C 78.595 46.216,78.257 50.782,79.127 52.703 C 79.569 53.678,79.490 53.729,77.885 53.506 C 73.931 52.956,72.298 50.459,73.053 46.115 C 74.066 40.282,81.718 33.825,89.169 32.514 C 90.355 32.306,95.233 32.406,96.042 32.656 M58.500 33.532 C 67.445 36.279,69.383 43.039,64.798 55.500 C 64.511 56.279,64.227 56.992,64.167 57.083 C 64.107 57.175,63.919 57.625,63.750 58.083 C 63.369 59.114,61.499 62.730,61.307 62.806 C 61.230 62.836,61.167 62.933,61.167 63.022 C 61.167 63.885,56.963 69.074,55.250 70.325 C 50.888 73.511,46.096 70.718,46.114 65.000 C 46.122 62.461,46.510 61.367,48.660 57.828 C 50.421 54.928,50.545 53.162,49.196 50.149 C 45.956 42.907,49.018 34.004,55.000 33.274 C 55.825 33.173,57.809 33.319,58.500 33.532 M69.871 34.040 C 70.767 34.463,71.128 35.946,70.589 36.988 C 69.851 38.417,68.069 38.838,67.258 37.776 C 65.971 36.088,68.015 33.164,69.871 34.040 M199.071 35.792 C 199.010 36.135,198.677 37.692,198.331 39.250 C 197.985 40.808,197.652 42.383,197.591 42.750 C 197.530 43.117,197.190 44.729,196.835 46.333 C 195.781 51.106,194.691 56.204,194.573 56.917 C 194.512 57.283,194.180 58.821,193.833 60.333 C 193.487 61.846,193.150 63.421,193.085 63.833 C 193.019 64.246,192.748 65.533,192.483 66.693 C 191.572 70.673,192.071 71.827,194.614 71.623 C 195.882 71.521,195.877 71.500,195.009 73.295 C 193.634 76.138,192.246 77.077,189.413 77.081 C 186.619 77.085,184.953 76.162,183.883 74.019 C 183.627 73.504,183.399 73.053,183.377 73.016 C 183.355 72.978,182.867 73.461,182.293 74.087 C 178.085 78.683,171.289 78.642,168.769 74.004 C 167.342 71.379,167.690 63.827,169.476 58.652 L 169.797 57.720 168.015 58.515 C 167.035 58.952,166.049 59.356,165.824 59.413 C 165.437 59.510,165.394 59.647,165.028 61.952 C 163.527 71.410,158.232 77.384,151.333 77.403 C 146.134 77.417,143.692 75.669,142.734 71.250 C 142.178 68.687,142.504 62.248,143.347 59.117 C 143.443 58.759,143.497 58.441,143.467 58.411 C 143.279 58.223,140.314 59.612,140.258 59.914 C 140.224 60.099,140.072 61.038,139.921 62.000 C 138.180 73.056,130.661 79.553,122.534 77.023 C 118.868 75.882,117.333 73.019,117.333 67.318 C 117.333 54.865,123.052 46.960,132.358 46.550 C 137.391 46.328,139.649 48.398,140.392 53.914 C 140.634 55.713,140.828 55.892,142.417 55.779 C 144.099 55.659,144.778 55.201,145.750 53.531 C 150.013 46.201,160.908 43.919,164.292 49.646 C 164.794 50.496,165.499 53.241,165.500 54.349 C 165.501 56.960,169.937 55.982,172.325 52.844 C 175.013 49.313,177.980 47.595,182.148 47.157 C 184.195 46.942,186.754 47.530,187.248 48.330 C 187.415 48.600,187.667 48.527,187.668 48.208 C 187.669 48.048,187.933 46.754,188.257 45.333 C 188.580 43.913,189.105 41.459,189.424 39.881 C 190.250 35.792,189.739 36.303,193.526 35.782 C 197.557 35.227,197.598 35.222,198.466 35.192 L 199.182 35.167 199.071 35.792 M300.789 35.542 C 300.743 35.748,300.477 37.042,300.198 38.417 C 299.919 39.792,299.506 41.704,299.280 42.667 C 299.053 43.629,298.816 44.754,298.751 45.167 C 298.686 45.579,298.374 47.042,298.058 48.417 C 297.741 49.792,297.378 51.492,297.251 52.196 C 297.124 52.900,296.711 54.887,296.334 56.613 C 293.572 69.235,293.545 69.386,293.888 70.208 C 294.692 72.131,297.417 71.923,300.298 69.718 C 301.749 68.608,301.738 68.625,302.085 66.741 C 302.235 65.921,302.649 63.938,303.003 62.333 C 303.358 60.729,303.883 58.329,304.170 57.000 C 304.651 54.780,304.955 53.337,306.580 45.583 C 306.887 44.117,307.374 41.829,307.663 40.500 C 307.951 39.171,308.276 37.671,308.385 37.167 L 308.583 36.250 311.667 35.804 C 316.363 35.125,317.727 35.040,317.612 35.435 C 317.520 35.751,317.170 37.364,315.751 44.000 C 315.329 45.971,314.687 48.933,314.322 50.583 C 313.129 55.992,313.129 55.992,314.110 55.131 C 314.462 54.822,314.909 54.460,315.104 54.327 C 315.299 54.193,316.236 53.463,317.187 52.704 C 318.138 51.946,319.281 51.046,319.726 50.704 C 321.845 49.078,322.564 48.525,323.508 47.792 L 324.527 47.000 327.764 47.000 C 329.544 47.000,331.000 47.061,331.000 47.136 C 331.000 47.211,330.269 47.760,329.375 48.355 C 327.361 49.697,327.755 49.432,323.321 52.417 L 319.606 54.917 320.686 55.025 C 324.242 55.380,327.500 58.907,327.500 62.401 C 327.500 62.880,327.231 64.429,326.903 65.844 C 326.185 68.941,326.121 69.968,326.604 70.620 C 327.250 71.490,329.222 71.789,330.336 71.185 C 330.977 70.838,330.968 70.900,330.671 68.918 C 330.155 65.476,331.361 58.975,333.285 54.828 C 336.247 48.444,341.427 45.535,347.564 46.808 C 351.200 47.562,352.642 49.481,352.455 53.321 C 352.168 59.203,347.770 63.119,339.229 65.097 C 339.124 65.121,338.989 65.698,338.923 66.410 C 338.264 73.440,344.676 74.777,350.645 68.854 C 353.040 66.477,353.556 65.479,354.336 61.722 C 355.847 54.440,356.327 52.173,356.642 50.833 C 356.824 50.054,357.061 48.929,357.168 48.334 C 357.422 46.923,357.126 47.005,361.958 47.003 C 366.745 47.000,366.335 46.836,365.913 48.583 C 365.781 49.133,365.671 49.639,365.669 49.708 C 365.668 49.777,366.027 49.574,366.467 49.258 C 371.563 45.596,377.326 46.673,376.961 51.219 C 376.594 55.794,370.973 57.480,369.915 53.333 C 369.538 51.854,369.294 51.610,368.337 51.752 C 365.890 52.114,364.972 53.070,364.410 55.842 C 364.179 56.983,363.697 59.267,363.339 60.917 C 361.769 68.151,361.272 70.490,361.072 71.583 C 360.840 72.855,360.250 75.547,359.986 76.542 L 359.820 77.167 355.494 77.167 L 351.167 77.167 351.169 76.792 C 351.170 76.585,351.454 75.142,351.799 73.583 L 352.426 70.750 351.705 71.451 C 344.811 78.157,335.767 79.140,332.318 73.558 L 331.971 72.997 330.860 74.017 C 327.345 77.246,324.208 77.950,320.643 76.310 C 317.334 74.788,316.570 71.874,317.984 66.171 C 319.079 61.758,318.304 59.719,315.556 59.776 C 314.086 59.807,312.225 60.589,312.083 61.235 C 312.042 61.427,311.703 63.008,311.332 64.750 C 310.961 66.492,310.319 69.492,309.907 71.417 C 309.494 73.342,309.065 75.404,308.953 76.000 L 308.750 77.083 304.503 77.128 C 299.316 77.182,299.797 77.379,300.244 75.388 C 300.447 74.487,300.665 73.423,300.728 73.023 L 300.843 72.296 299.547 73.365 C 295.603 76.615,293.492 77.468,290.500 77.017 C 288.049 76.648,286.064 75.302,285.398 73.558 C 285.060 72.674,285.039 72.673,284.091 73.493 C 281.758 75.512,278.996 76.985,277.285 77.123 C 274.117 77.377,271.099 75.918,269.965 73.584 L 269.607 72.848 268.327 74.216 C 264.109 78.720,257.191 78.580,254.923 73.944 C 252.730 69.462,254.680 58.018,258.525 52.806 C 262.221 47.794,269.294 45.528,273.167 48.115 L 273.750 48.504 273.880 47.884 C 273.951 47.543,274.101 47.206,274.213 47.135 C 274.580 46.901,282.666 46.971,282.757 47.208 C 282.801 47.323,282.531 48.879,282.158 50.667 C 281.785 52.454,281.192 55.304,280.839 57.000 C 280.487 58.696,280.075 60.608,279.924 61.250 C 279.151 64.538,278.317 69.142,278.391 69.721 C 278.615 71.487,280.813 72.050,283.088 70.925 C 284.657 70.149,284.761 70.043,284.891 69.083 C 285.012 68.181,285.547 65.579,286.448 61.500 C 286.762 60.079,287.164 58.167,287.342 57.250 C 287.520 56.333,287.924 54.421,288.240 53.000 C 288.556 51.579,289.124 48.954,289.502 47.167 C 289.879 45.379,290.525 42.342,290.937 40.417 C 291.349 38.492,291.716 36.764,291.754 36.577 C 291.816 36.267,292.120 36.197,295.203 35.785 C 297.062 35.536,298.771 35.305,299.000 35.272 C 300.361 35.076,300.875 35.154,300.789 35.542 M32.856 38.543 C 33.458 38.988,34.064 40.530,33.940 41.302 C 33.485 44.133,30.573 44.715,29.480 42.195 C 28.349 39.587,30.752 36.988,32.856 38.543 M26.594 39.506 C 28.087 40.429,28.249 43.159,26.868 44.142 C 24.569 45.779,22.195 41.771,24.248 39.718 C 24.911 39.056,25.743 38.981,26.594 39.506 M40.497 39.498 C 43.366 40.962,43.105 46.098,40.078 47.770 C 38.432 48.680,36.427 47.840,35.559 45.878 C 33.969 42.282,37.361 37.899,40.497 39.498 M21.184 42.043 C 23.203 43.385,22.756 46.781,20.566 46.734 C 18.277 46.685,17.402 42.974,19.417 41.861 C 19.943 41.570,20.570 41.635,21.184 42.043 M30.948 45.430 C 36.712 46.764,39.337 55.432,36.088 62.403 C 34.646 65.499,34.821 66.699,37.331 70.924 C 37.974 72.006,38.500 72.973,38.501 73.071 C 38.502 73.169,38.599 73.438,38.717 73.667 C 39.476 75.141,39.527 78.331,38.818 80.066 C 37.071 84.341,32.411 84.780,28.667 81.022 C 25.582 77.926,23.014 73.739,20.885 68.333 C 19.929 65.908,19.752 65.363,18.685 61.583 C 16.946 55.422,19.099 49.109,23.750 46.732 C 26.486 45.334,28.759 44.923,30.948 45.430 M17.557 46.471 C 18.698 47.546,18.857 49.009,17.933 49.933 C 17.002 50.865,15.798 50.562,14.923 49.176 C 13.576 47.043,15.770 44.790,17.557 46.471 M345.709 50.082 C 343.799 50.912,341.469 55.000,340.151 59.833 C 339.518 62.155,339.505 62.062,340.458 61.922 C 342.738 61.588,344.301 60.863,345.813 59.438 C 349.783 55.694,349.701 48.346,345.709 50.082 M131.666 50.574 C 128.451 52.249,125.613 59.766,125.591 66.667 C 125.581 69.548,125.884 70.314,127.322 71.042 C 130.946 72.878,134.126 69.243,135.404 61.804 C 135.683 60.180,135.657 60.000,135.149 60.000 C 132.658 60.000,132.525 55.373,134.965 53.583 C 137.214 51.933,134.249 49.227,131.666 50.574 M157.200 50.342 C 154.016 51.619,151.475 57.469,150.672 65.367 C 150.248 69.532,151.410 71.503,154.286 71.498 C 157.194 71.494,159.475 67.886,160.556 61.583 C 160.827 60.007,160.848 60.072,160.019 59.939 C 157.429 59.525,157.958 54.042,160.674 53.136 C 160.825 53.086,160.848 52.843,160.759 52.249 C 160.510 50.589,158.829 49.688,157.200 50.342 M182.833 50.872 C 178.427 52.299,174.020 68.328,177.169 71.477 C 178.896 73.203,182.832 71.580,183.229 68.978 C 183.290 68.577,183.634 66.900,183.995 65.250 C 184.603 62.465,185.594 57.856,186.548 53.377 L 186.947 51.504 186.182 51.133 C 185.301 50.706,183.726 50.583,182.833 50.872 M268.743 51.061 C 265.419 52.609,262.472 60.246,262.431 67.417 C 262.411 70.963,262.941 71.913,265.138 72.265 C 266.475 72.479,269.159 70.603,269.396 69.288 C 269.433 69.084,269.704 67.792,269.998 66.417 C 272.325 55.551,273.053 51.788,272.881 51.514 C 272.366 50.693,270.072 50.443,268.743 51.061 " stroke="none" fill="#04344c" fill-rule="evenodd"></path><path id="path2" d="M42.879 31.333 C 42.879 31.746,42.911 31.915,42.951 31.708 C 42.991 31.502,42.991 31.165,42.951 30.958 C 42.911 30.752,42.879 30.921,42.879 31.333 M96.580 50.083 C 96.580 59.525,96.600 63.363,96.625 58.612 C 96.650 53.862,96.650 46.137,96.625 41.446 C 96.600 36.755,96.580 40.642,96.580 50.083 M70.709 35.917 C 70.711 36.283,70.745 36.414,70.785 36.206 C 70.824 35.999,70.823 35.699,70.781 35.540 C 70.739 35.380,70.707 35.550,70.709 35.917 M63.667 36.219 C 63.667 36.248,63.910 36.491,64.208 36.760 L 64.750 37.250 64.260 36.708 C 63.804 36.203,63.667 36.090,63.667 36.219 M220.892 39.000 C 220.892 39.779,220.920 40.098,220.955 39.708 C 220.990 39.319,220.990 38.681,220.955 38.292 C 220.920 37.902,220.892 38.221,220.892 39.000 M25.208 39.282 C 25.369 39.323,25.631 39.323,25.792 39.282 C 25.952 39.240,25.821 39.205,25.500 39.205 C 25.179 39.205,25.048 39.240,25.208 39.282 M38.875 39.282 C 39.035 39.323,39.298 39.323,39.458 39.282 C 39.619 39.240,39.487 39.205,39.167 39.205 C 38.846 39.205,38.715 39.240,38.875 39.282 M14.545 47.833 C 14.545 48.246,14.578 48.415,14.618 48.208 C 14.657 48.002,14.657 47.665,14.618 47.458 C 14.578 47.252,14.545 47.421,14.545 47.833 M221.055 50.417 C 221.055 51.058,221.086 51.300,221.122 50.955 C 221.158 50.609,221.157 50.084,221.120 49.788 C 221.083 49.492,221.054 49.775,221.055 50.417 M87.292 60.208 C 87.315 64.631,87.354 70.237,87.378 72.667 C 87.402 75.096,87.440 71.477,87.461 64.625 C 87.483 57.773,87.444 52.167,87.375 52.167 C 87.306 52.167,87.269 55.785,87.292 60.208 M50.217 53.667 C 50.217 54.171,50.248 54.377,50.286 54.125 C 50.324 53.873,50.324 53.460,50.286 53.208 C 50.248 52.956,50.217 53.163,50.217 53.667 M345.991 59.292 L 345.417 59.917 346.042 59.342 C 346.623 58.808,346.743 58.667,346.616 58.667 C 346.588 58.667,346.307 58.948,345.991 59.292 M221.205 62.500 C 221.205 62.821,221.240 62.952,221.282 62.792 C 221.323 62.631,221.323 62.369,221.282 62.208 C 221.240 62.048,221.205 62.179,221.205 62.500 M125.372 67.000 C 125.372 67.321,125.406 67.452,125.448 67.292 C 125.490 67.131,125.490 66.869,125.448 66.708 C 125.406 66.548,125.372 66.679,125.372 67.000 M262.209 68.083 C 262.211 68.450,262.245 68.580,262.285 68.373 C 262.324 68.166,262.323 67.866,262.281 67.706 C 262.239 67.547,262.207 67.717,262.209 68.083 M167.872 68.833 C 167.872 69.154,167.906 69.285,167.948 69.125 C 167.990 68.965,167.990 68.702,167.948 68.542 C 167.906 68.381,167.872 68.512,167.872 68.833 M254.053 69.500 C 254.053 70.096,254.084 70.340,254.121 70.042 C 254.158 69.744,254.158 69.256,254.121 68.958 C 254.084 68.660,254.053 68.904,254.053 69.500 M181.906 74.375 L 181.417 74.917 181.958 74.427 C 182.256 74.158,182.500 73.914,182.500 73.885 C 182.500 73.757,182.362 73.870,181.906 74.375 M126.208 77.448 C 126.369 77.490,126.631 77.490,126.792 77.448 C 126.952 77.406,126.821 77.372,126.500 77.372 C 126.179 77.372,126.048 77.406,126.208 77.448 M151.294 77.451 C 151.501 77.491,151.801 77.490,151.960 77.448 C 152.120 77.406,151.950 77.374,151.583 77.375 C 151.217 77.377,151.086 77.411,151.294 77.451 " stroke="none" fill="#5e818d" fill-rule="evenodd"></path><path id="path3" d="M52.387 26.875 C 52.202 27.081,51.990 27.363,51.917 27.500 C 51.776 27.765,51.815 27.729,52.490 26.958 C 52.711 26.706,52.854 26.500,52.808 26.500 C 52.762 26.500,52.573 26.669,52.387 26.875 M58.487 27.958 L 58.083 28.417 58.583 28.000 C 58.858 27.771,59.115 27.565,59.153 27.542 C 59.191 27.519,59.148 27.500,59.057 27.500 C 58.966 27.500,58.710 27.706,58.487 27.958 M43.833 28.542 C 43.587 28.877,43.547 28.993,43.727 28.847 C 44.001 28.625,44.414 28.000,44.287 28.000 C 44.255 28.000,44.051 28.244,43.833 28.542 M55.875 28.917 C 55.877 29.283,55.911 29.414,55.951 29.206 C 55.991 28.999,55.990 28.699,55.948 28.540 C 55.906 28.380,55.874 28.550,55.875 28.917 M57.712 30.000 C 57.712 30.412,57.745 30.581,57.784 30.375 C 57.824 30.169,57.824 29.831,57.784 29.625 C 57.745 29.419,57.712 29.587,57.712 30.000 M55.542 30.208 C 55.362 30.698,55.367 30.719,55.588 30.426 C 55.800 30.147,55.925 29.667,55.787 29.667 C 55.761 29.667,55.651 29.910,55.542 30.208 M66.000 30.216 C 66.137 30.335,66.353 30.541,66.479 30.674 C 66.674 30.882,66.681 30.865,66.525 30.561 C 66.425 30.366,66.209 30.159,66.046 30.103 C 65.788 30.013,65.782 30.027,66.000 30.216 M52.168 30.773 C 52.625 31.506,53.867 31.904,54.481 31.515 C 54.623 31.425,54.427 31.401,53.966 31.453 C 53.299 31.528,53.154 31.478,52.583 30.978 C 52.164 30.609,52.022 30.539,52.168 30.773 M66.861 31.861 C 66.846 32.198,66.790 32.610,66.737 32.778 C 66.647 33.066,66.653 33.066,66.831 32.789 C 66.935 32.627,66.990 32.214,66.955 31.872 L 66.889 31.250 66.861 31.861 M63.042 32.583 C 63.044 32.950,63.078 33.080,63.118 32.873 C 63.158 32.666,63.156 32.366,63.115 32.206 C 63.073 32.047,63.040 32.217,63.042 32.583 M49.872 32.667 C 49.872 32.987,49.906 33.119,49.948 32.958 C 49.990 32.798,49.990 32.535,49.948 32.375 C 49.906 32.215,49.872 32.346,49.872 32.667 M220.721 33.417 C 220.722 34.058,220.752 34.300,220.788 33.955 C 220.824 33.609,220.824 33.084,220.787 32.788 C 220.750 32.492,220.721 32.775,220.721 33.417 M112.135 32.958 C 113.447 32.986,115.547 32.986,116.802 32.958 C 118.057 32.930,116.983 32.907,114.417 32.907 C 111.850 32.907,110.823 32.930,112.135 32.958 M55.875 33.448 C 56.035 33.490,56.298 33.490,56.458 33.448 C 56.619 33.406,56.487 33.372,56.167 33.372 C 55.846 33.372,55.715 33.406,55.875 33.448 M63.167 33.436 C 63.166 33.716,63.830 34.502,64.054 34.487 C 64.178 34.478,64.169 34.441,64.028 34.385 C 63.906 34.336,63.662 34.061,63.487 33.773 C 63.311 33.485,63.168 33.334,63.167 33.436 M65.872 34.005 C 65.573 34.277,65.390 34.500,65.466 34.500 C 65.542 34.500,65.820 34.275,66.083 34.000 C 66.696 33.361,66.578 33.363,65.872 34.005 M43.653 33.958 C 43.743 34.119,44.014 34.475,44.255 34.750 C 44.587 35.128,44.562 35.058,44.152 34.458 C 43.616 33.676,43.334 33.393,43.653 33.958 M48.583 35.112 C 48.217 35.440,48.067 35.632,48.250 35.537 C 48.559 35.377,49.479 34.491,49.321 34.507 C 49.282 34.511,48.950 34.783,48.583 35.112 M51.204 35.292 L 50.386 36.083 51.151 35.433 C 52.224 34.520,52.246 34.500,52.128 34.500 C 52.071 34.500,51.655 34.856,51.204 35.292 M61.833 35.052 C 61.833 35.091,62.152 35.333,62.542 35.590 C 62.931 35.846,63.162 35.950,63.054 35.820 C 62.848 35.570,61.833 34.932,61.833 35.052 M67.158 35.606 C 67.066 35.848,67.022 36.077,67.059 36.115 C 67.097 36.153,67.208 35.955,67.305 35.675 C 67.522 35.053,67.391 34.993,67.158 35.606 M46.833 35.833 L 46.083 35.950 46.750 35.972 C 47.117 35.985,47.529 35.922,47.667 35.833 C 47.804 35.744,47.842 35.682,47.750 35.694 C 47.658 35.707,47.246 35.769,46.833 35.833 M63.993 36.708 C 64.684 37.444,64.833 37.577,64.833 37.451 C 64.833 37.425,64.477 37.068,64.042 36.660 L 63.250 35.917 63.993 36.708 M69.517 37.764 C 69.206 37.986,69.033 38.167,69.133 38.167 C 69.233 38.167,69.525 37.982,69.782 37.755 C 70.371 37.237,70.253 37.241,69.517 37.764 M78.073 38.208 L 77.583 38.750 78.125 38.260 C 78.630 37.804,78.743 37.667,78.615 37.667 C 78.586 37.667,78.342 37.910,78.073 38.208 M30.480 38.501 C 30.332 38.588,30.083 38.867,29.928 39.121 L 29.647 39.583 30.000 39.178 C 30.194 38.955,30.479 38.676,30.635 38.558 C 30.964 38.308,30.870 38.273,30.480 38.501 M32.477 38.603 C 32.689 38.751,33.005 39.107,33.180 39.394 C 33.355 39.682,33.499 39.826,33.499 39.714 C 33.500 39.446,32.517 38.333,32.279 38.333 C 32.176 38.333,32.266 38.455,32.477 38.603 M201.409 39.208 L 200.750 39.917 201.458 39.258 C 201.848 38.895,202.167 38.577,202.167 38.550 C 202.167 38.423,202.022 38.550,201.409 39.208 M82.406 39.208 L 81.917 39.750 82.458 39.260 C 82.963 38.804,83.077 38.667,82.948 38.667 C 82.919 38.667,82.675 38.910,82.406 39.208 M24.384 39.762 L 23.917 40.191 24.458 39.814 C 24.756 39.607,25.000 39.414,25.000 39.385 C 25.000 39.254,24.816 39.367,24.384 39.762 M26.083 39.440 C 26.932 40.193,27.245 40.413,26.917 40.026 C 26.736 39.811,26.436 39.559,26.252 39.464 C 26.068 39.370,25.992 39.359,26.083 39.440 M36.721 40.375 C 36.535 40.581,36.323 40.862,36.250 41.000 C 36.110 41.265,36.148 41.229,36.823 40.458 C 37.044 40.206,37.187 40.000,37.141 40.000 C 37.096 40.000,36.906 40.169,36.721 40.375 M29.375 40.917 C 29.377 41.283,29.411 41.414,29.451 41.206 C 29.491 40.999,29.490 40.699,29.448 40.540 C 29.406 40.380,29.374 40.550,29.375 40.917 M66.362 40.833 C 66.370 41.266,66.633 41.978,66.638 41.583 C 66.641 41.400,66.579 41.100,66.500 40.917 C 66.412 40.712,66.359 40.680,66.362 40.833 M220.900 43.917 C 220.900 45.292,220.926 45.832,220.957 45.117 C 220.989 44.403,220.988 43.278,220.957 42.617 C 220.925 41.957,220.900 42.542,220.900 43.917 M29.507 41.814 C 29.496 42.176,30.159 43.152,30.557 43.359 C 30.834 43.503,30.810 43.446,30.451 43.107 C 30.194 42.866,29.879 42.424,29.749 42.126 C 29.619 41.827,29.510 41.687,29.507 41.814 M19.500 42.002 C 19.324 42.118,19.423 42.134,19.833 42.059 C 20.552 41.927,20.688 41.832,20.153 41.836 C 19.931 41.837,19.637 41.912,19.500 42.002 M35.372 43.333 C 35.372 43.654,35.406 43.785,35.448 43.625 C 35.490 43.465,35.490 43.202,35.448 43.042 C 35.406 42.881,35.372 43.012,35.372 43.333 M66.898 44.917 C 66.898 46.108,66.925 46.574,66.957 45.951 C 66.989 45.329,66.989 44.354,66.957 43.785 C 66.924 43.216,66.898 43.725,66.898 44.917 M24.615 43.792 C 24.916 44.090,25.294 44.329,25.456 44.323 C 25.664 44.315,25.629 44.264,25.333 44.147 C 25.104 44.055,24.726 43.816,24.492 43.615 C 24.259 43.414,24.314 43.494,24.615 43.792 M22.212 44.500 C 22.212 44.913,22.245 45.081,22.284 44.875 C 22.324 44.669,22.324 44.331,22.284 44.125 C 22.245 43.919,22.212 44.087,22.212 44.500 M35.336 44.514 C 35.337 44.827,35.407 45.192,35.491 45.325 C 35.590 45.481,35.610 45.304,35.549 44.825 C 35.431 43.904,35.333 43.760,35.336 44.514 M18.507 44.717 C 18.493 44.985,18.976 45.760,19.358 46.083 L 19.750 46.414 19.395 45.999 C 19.200 45.770,18.922 45.358,18.777 45.083 C 18.632 44.808,18.510 44.643,18.507 44.717 M28.708 45.453 C 28.960 45.491,29.373 45.491,29.625 45.453 C 29.877 45.415,29.671 45.383,29.167 45.383 C 28.662 45.383,28.456 45.415,28.708 45.453 M21.644 46.006 C 21.403 46.278,21.260 46.500,21.327 46.500 C 21.455 46.500,21.869 46.058,22.068 45.708 C 22.256 45.377,22.117 45.475,21.644 46.006 M26.333 45.833 C 25.990 45.943,25.975 45.969,26.250 45.981 C 26.433 45.989,26.696 45.922,26.833 45.833 C 27.125 45.645,26.923 45.645,26.333 45.833 M16.833 46.213 C 16.833 46.245,17.077 46.449,17.375 46.667 C 17.710 46.913,17.827 46.953,17.680 46.773 C 17.458 46.499,16.833 46.086,16.833 46.213 M24.750 46.423 C 24.331 46.624,24.318 46.647,24.667 46.563 C 24.896 46.508,25.155 46.396,25.242 46.315 C 25.458 46.113,25.339 46.139,24.750 46.423 M36.416 46.974 C 36.598 47.189,36.897 47.441,37.081 47.536 C 37.435 47.717,37.384 47.661,36.585 46.998 C 36.103 46.598,36.097 46.597,36.416 46.974 M233.468 46.792 C 233.440 46.860,233.455 53.704,233.501 62.000 L 233.586 77.083 233.626 61.875 C 233.649 53.510,233.634 46.667,233.593 46.667 C 233.553 46.667,233.496 46.723,233.468 46.792 M34.250 47.500 C 34.608 47.867,34.938 48.167,34.984 48.167 C 35.030 48.167,34.775 47.867,34.417 47.500 C 34.059 47.133,33.728 46.833,33.682 46.833 C 33.637 46.833,33.892 47.133,34.250 47.500 M21.451 48.542 L 20.554 49.417 21.402 48.681 C 21.868 48.276,22.321 47.882,22.408 47.806 C 22.495 47.729,22.518 47.667,22.458 47.667 C 22.398 47.667,21.945 48.060,21.451 48.542 M38.375 47.948 C 38.535 47.990,38.798 47.990,38.958 47.948 C 39.119 47.906,38.987 47.872,38.667 47.872 C 38.346 47.872,38.215 47.906,38.375 47.948 M202.892 49.333 C 202.892 50.112,202.920 50.431,202.955 50.042 C 202.990 49.652,202.990 49.015,202.955 48.625 C 202.920 48.235,202.892 48.554,202.892 49.333 M336.577 50.042 L 335.750 50.917 336.625 50.090 C 337.106 49.635,337.500 49.241,337.500 49.215 C 337.500 49.090,337.346 49.229,336.577 50.042 M17.714 49.783 C 17.511 49.994,17.406 50.167,17.480 50.167 C 17.643 50.167,18.249 49.519,18.152 49.449 C 18.114 49.422,17.917 49.572,17.714 49.783 M122.909 50.708 L 122.250 51.417 122.958 50.758 C 123.617 50.145,123.743 50.000,123.617 50.000 C 123.590 50.000,123.271 50.319,122.909 50.708 M173.906 51.042 L 173.417 51.583 173.958 51.094 C 174.256 50.825,174.500 50.581,174.500 50.552 C 174.500 50.423,174.362 50.537,173.906 51.042 M260.073 51.042 L 259.583 51.583 260.125 51.094 C 260.423 50.825,260.667 50.581,260.667 50.552 C 260.667 50.423,260.529 50.537,260.073 51.042 M36.523 51.333 C 36.523 51.471,36.588 51.733,36.667 51.917 C 36.757 52.127,36.810 52.158,36.810 52.000 C 36.810 51.862,36.745 51.600,36.667 51.417 C 36.576 51.207,36.523 51.176,36.523 51.333 M50.023 51.931 C 50.121 52.290,50.240 52.621,50.287 52.667 C 50.434 52.810,50.139 51.592,49.988 51.431 C 49.909 51.347,49.925 51.572,50.023 51.931 M348.879 53.000 C 348.879 53.413,348.911 53.581,348.951 53.375 C 348.991 53.169,348.991 52.831,348.951 52.625 C 348.911 52.419,348.879 52.587,348.879 53.000 M221.065 54.667 C 221.065 55.904,221.092 56.410,221.124 55.792 C 221.156 55.173,221.156 54.160,221.124 53.542 C 221.092 52.923,221.065 53.429,221.065 54.667 M37.039 53.833 C 37.039 54.154,37.073 54.285,37.115 54.125 C 37.157 53.965,37.157 53.702,37.115 53.542 C 37.073 53.381,37.039 53.512,37.039 53.833 M77.960 53.451 C 78.168 53.491,78.468 53.490,78.627 53.448 C 78.786 53.406,78.617 53.374,78.250 53.375 C 77.883 53.377,77.753 53.411,77.960 53.451 M202.208 53.448 C 202.369 53.490,202.631 53.490,202.792 53.448 C 202.952 53.406,202.821 53.372,202.500 53.372 C 202.179 53.372,202.048 53.406,202.208 53.448 M37.218 55.750 C 37.219 56.300,37.250 56.505,37.287 56.205 C 37.325 55.906,37.324 55.456,37.286 55.205 C 37.248 54.955,37.217 55.200,37.218 55.750 M18.392 57.000 C 18.392 57.779,18.420 58.098,18.455 57.708 C 18.490 57.319,18.490 56.681,18.455 56.292 C 18.420 55.902,18.392 56.221,18.392 57.000 M133.205 57.333 C 133.205 57.654,133.240 57.785,133.282 57.625 C 133.323 57.465,133.323 57.202,133.282 57.042 C 133.240 56.881,133.205 57.012,133.205 57.333 M37.042 57.750 C 37.044 58.117,37.078 58.247,37.118 58.040 C 37.158 57.832,37.156 57.532,37.115 57.373 C 37.073 57.214,37.040 57.383,37.042 57.750 M63.491 57.940 C 63.399 58.182,63.355 58.410,63.393 58.448 C 63.431 58.486,63.541 58.288,63.639 58.009 C 63.855 57.387,63.725 57.326,63.491 57.940 M46.856 61.484 C 46.660 61.939,46.505 62.448,46.511 62.614 C 46.517 62.781,46.617 62.617,46.732 62.250 C 46.847 61.883,47.036 61.408,47.151 61.194 C 47.266 60.980,47.327 60.771,47.286 60.731 C 47.245 60.690,47.052 61.029,46.856 61.484 M327.375 62.583 C 327.377 62.950,327.411 63.080,327.451 62.873 C 327.491 62.666,327.490 62.366,327.448 62.206 C 327.406 62.047,327.374 62.217,327.375 62.583 M46.226 65.083 C 46.225 65.908,46.254 66.267,46.288 65.880 C 46.323 65.493,46.324 64.818,46.289 64.380 C 46.255 63.942,46.226 64.258,46.226 65.083 M221.228 65.833 C 221.228 66.796,221.256 67.190,221.290 66.708 C 221.323 66.227,221.323 65.440,221.290 64.958 C 221.256 64.477,221.228 64.871,221.228 65.833 M125.372 65.667 C 125.372 65.987,125.406 66.119,125.448 65.958 C 125.490 65.798,125.490 65.535,125.448 65.375 C 125.406 65.215,125.372 65.346,125.372 65.667 M58.977 65.958 C 58.497 66.537,58.294 66.833,58.376 66.833 C 58.423 66.833,58.661 66.571,58.905 66.250 C 59.359 65.655,59.414 65.430,58.977 65.958 M176.042 66.250 C 176.044 66.617,176.078 66.747,176.118 66.540 C 176.158 66.332,176.156 66.032,176.115 65.873 C 176.073 65.714,176.040 65.883,176.042 66.250 M262.212 66.500 C 262.212 66.912,262.245 67.081,262.284 66.875 C 262.324 66.669,262.324 66.331,262.284 66.125 C 262.245 65.919,262.212 66.087,262.212 66.500 M330.726 67.250 C 330.725 68.075,330.754 68.434,330.788 68.047 C 330.823 67.660,330.824 66.985,330.789 66.547 C 330.755 66.109,330.726 66.425,330.726 67.250 M117.381 66.750 C 117.382 67.208,117.415 67.376,117.453 67.123 C 117.491 66.869,117.490 66.494,117.451 66.289 C 117.411 66.084,117.380 66.292,117.381 66.750 M338.709 67.583 C 338.711 67.950,338.745 68.080,338.785 67.873 C 338.824 67.666,338.823 67.366,338.781 67.206 C 338.739 67.047,338.707 67.217,338.709 67.583 M117.375 68.250 C 117.377 68.617,117.411 68.747,117.451 68.540 C 117.491 68.332,117.490 68.032,117.448 67.873 C 117.406 67.714,117.374 67.883,117.375 68.250 M293.539 69.333 C 293.539 69.654,293.573 69.785,293.615 69.625 C 293.657 69.465,293.657 69.202,293.615 69.042 C 293.573 68.881,293.539 69.012,293.539 69.333 M317.385 70.583 C 317.386 71.133,317.417 71.338,317.454 71.039 C 317.491 70.739,317.490 70.289,317.452 70.039 C 317.414 69.788,317.384 70.033,317.385 70.583 M54.292 70.595 C 53.669 70.933,53.707 71.074,54.333 70.750 C 54.608 70.608,54.833 70.456,54.833 70.412 C 54.833 70.305,54.815 70.311,54.292 70.595 M22.091 70.875 C 22.153 71.081,22.273 71.323,22.357 71.413 C 22.440 71.502,22.425 71.334,22.322 71.038 C 22.110 70.432,21.916 70.295,22.091 70.875 M351.824 71.125 L 351.250 71.750 351.915 71.167 C 352.280 70.846,352.612 70.565,352.651 70.542 C 352.690 70.519,352.649 70.500,352.560 70.500 C 352.472 70.500,352.140 70.781,351.824 71.125 M296.208 71.615 C 296.369 71.657,296.631 71.657,296.792 71.615 C 296.952 71.573,296.821 71.539,296.500 71.539 C 296.179 71.539,296.048 71.573,296.208 71.615 M328.708 71.615 C 328.869 71.657,329.131 71.657,329.292 71.615 C 329.452 71.573,329.321 71.539,329.000 71.539 C 328.679 71.539,328.548 71.573,328.708 71.615 M343.292 72.784 C 343.498 72.824,343.835 72.824,344.042 72.784 C 344.248 72.745,344.079 72.712,343.667 72.712 C 343.254 72.712,343.085 72.745,343.292 72.784 M134.242 73.875 L 133.583 74.583 134.292 73.925 C 134.950 73.312,135.077 73.167,134.950 73.167 C 134.923 73.167,134.605 73.485,134.242 73.875 M24.645 75.583 C 24.735 75.767,24.931 76.067,25.080 76.250 L 25.352 76.583 25.188 76.250 C 25.098 76.067,24.902 75.767,24.753 75.583 L 24.482 75.250 24.645 75.583 M39.039 76.000 C 39.039 76.321,39.073 76.452,39.115 76.292 C 39.157 76.131,39.157 75.869,39.115 75.708 C 39.073 75.548,39.039 75.679,39.039 76.000 M26.167 77.833 C 26.362 78.108,26.560 78.333,26.606 78.333 C 26.652 78.333,26.529 78.108,26.333 77.833 C 26.138 77.558,25.940 77.333,25.894 77.333 C 25.848 77.333,25.971 77.558,26.167 77.833 M39.039 78.167 C 39.039 78.487,39.073 78.619,39.115 78.458 C 39.157 78.298,39.157 78.035,39.115 77.875 C 39.073 77.715,39.039 77.846,39.039 78.167 M27.134 79.125 C 27.407 79.469,27.803 79.900,28.015 80.083 C 28.227 80.267,28.033 79.985,27.585 79.458 C 26.672 78.385,26.371 78.162,27.134 79.125 M37.605 81.542 C 37.240 82.037,37.131 82.258,37.355 82.052 C 37.707 81.726,38.431 80.666,38.301 80.667 C 38.273 80.667,37.960 81.061,37.605 81.542 M30.430 82.355 C 30.541 82.534,31.842 83.214,31.921 83.134 C 31.952 83.104,31.608 82.882,31.157 82.642 C 30.706 82.402,30.379 82.272,30.430 82.355 " stroke="none" fill="#7b9ca4" fill-rule="evenodd"></path><path id="path4" d="M50.039 32.000 C 50.039 32.321,50.073 32.452,50.115 32.292 C 50.157 32.131,50.157 31.869,50.115 31.708 C 50.073 31.548,50.039 31.679,50.039 32.000 M235.884 32.458 C 236.967 32.487,238.692 32.487,239.718 32.458 C 240.744 32.428,239.858 32.405,237.750 32.405 C 235.642 32.405,234.802 32.429,235.884 32.458 M254.609 32.458 C 254.566 32.527,255.180 32.563,255.974 32.539 C 258.637 32.456,258.932 32.394,256.802 32.363 C 255.638 32.347,254.651 32.390,254.609 32.458 M50.906 35.375 L 50.417 35.917 50.958 35.427 C 51.463 34.971,51.577 34.833,51.448 34.833 C 51.419 34.833,51.175 35.077,50.906 35.375 M66.872 36.500 C 66.872 36.821,66.906 36.952,66.948 36.792 C 66.990 36.631,66.990 36.369,66.948 36.208 C 66.906 36.048,66.872 36.179,66.872 36.500 M220.881 36.917 C 220.882 37.375,220.915 37.543,220.953 37.289 C 220.991 37.036,220.990 36.661,220.951 36.456 C 220.911 36.251,220.880 36.458,220.881 36.917 M67.048 44.917 C 67.049 45.375,67.081 45.543,67.120 45.289 C 67.158 45.036,67.157 44.661,67.117 44.456 C 67.078 44.251,67.046 44.458,67.048 44.917 M221.056 48.167 C 221.056 48.854,221.085 49.135,221.121 48.792 C 221.157 48.448,221.157 47.885,221.121 47.542 C 221.085 47.198,221.056 47.479,221.056 48.167 M326.217 47.124 C 327.116 47.154,328.541 47.154,329.384 47.124 C 330.227 47.094,329.492 47.069,327.750 47.069 C 326.008 47.070,325.318 47.094,326.217 47.124 M221.205 61.500 C 221.205 61.821,221.240 61.952,221.282 61.792 C 221.323 61.631,221.323 61.369,221.282 61.208 C 221.240 61.048,221.205 61.179,221.205 61.500 M74.813 77.047 C 74.884 77.118,75.987 77.155,77.263 77.129 L 79.583 77.082 77.133 76.999 C 75.785 76.954,74.741 76.975,74.813 77.047 M105.417 77.000 L 101.083 77.092 105.365 77.129 C 108.081 77.153,109.685 77.106,109.750 77.000 C 109.807 76.908,109.830 76.850,109.802 76.871 C 109.773 76.891,107.800 76.949,105.417 77.000 M89.551 77.125 C 90.725 77.153,92.600 77.153,93.718 77.124 C 94.836 77.096,93.875 77.072,91.583 77.072 C 89.292 77.072,88.377 77.096,89.551 77.125 M189.044 77.120 C 189.297 77.158,189.672 77.157,189.877 77.117 C 190.082 77.078,189.875 77.046,189.417 77.048 C 188.958 77.049,188.791 77.081,189.044 77.120 M214.958 77.125 C 216.173 77.153,218.160 77.153,219.375 77.125 C 220.590 77.096,219.596 77.073,217.167 77.073 C 214.737 77.073,213.744 77.096,214.958 77.125 M235.698 77.124 C 236.862 77.153,238.812 77.153,240.032 77.125 C 241.252 77.096,240.300 77.073,237.917 77.073 C 235.533 77.073,234.535 77.096,235.698 77.124 M276.377 77.120 C 276.631 77.158,277.006 77.157,277.211 77.117 C 277.416 77.078,277.208 77.046,276.750 77.048 C 276.292 77.049,276.124 77.081,276.377 77.120 M291.792 77.118 C 291.998 77.157,292.335 77.157,292.542 77.118 C 292.748 77.078,292.579 77.045,292.167 77.045 C 291.754 77.045,291.585 77.078,291.792 77.118 M302.032 77.124 C 303.195 77.153,305.145 77.153,306.365 77.125 C 307.585 77.096,306.633 77.073,304.250 77.073 C 301.867 77.073,300.868 77.096,302.032 77.124 M324.292 77.118 C 324.498 77.157,324.835 77.157,325.042 77.118 C 325.248 77.078,325.079 77.045,324.667 77.045 C 324.254 77.045,324.085 77.078,324.292 77.118 M339.211 77.120 C 339.464 77.158,339.839 77.157,340.044 77.117 C 340.249 77.078,340.042 77.046,339.583 77.048 C 339.125 77.049,338.957 77.081,339.211 77.120 M353.292 77.125 C 354.506 77.153,356.494 77.153,357.708 77.125 C 358.923 77.096,357.929 77.073,355.500 77.073 C 353.071 77.073,352.077 77.096,353.292 77.125 " stroke="none" fill="#336e7e" fill-rule="evenodd"></path><path id="path5" d="M18.372 44.000 C 18.372 44.321,18.406 44.452,18.448 44.292 C 18.490 44.131,18.490 43.869,18.448 43.708 C 18.406 43.548,18.372 43.679,18.372 44.000 M35.052 65.583 C 35.053 66.133,35.084 66.338,35.121 66.039 C 35.158 65.739,35.157 65.289,35.119 65.039 C 35.081 64.788,35.051 65.033,35.052 65.583 " stroke="none" fill="#7594a4" fill-rule="evenodd"></path><path id="path6" d="M53.460 26.118 C 53.668 26.158,53.968 26.156,54.127 26.115 C 54.286 26.073,54.117 26.040,53.750 26.042 C 53.383 26.044,53.253 26.078,53.460 26.118 M217.788 32.120 C 218.084 32.157,218.609 32.158,218.955 32.122 C 219.300 32.086,219.058 32.055,218.417 32.055 C 217.775 32.054,217.492 32.083,217.788 32.120 M220.896 34.417 C 220.896 35.425,220.924 35.816,220.957 35.286 C 220.990 34.755,220.990 33.930,220.956 33.452 C 220.922 32.974,220.895 33.408,220.896 34.417 M55.792 33.284 C 55.998 33.324,56.335 33.324,56.542 33.284 C 56.748 33.245,56.579 33.212,56.167 33.212 C 55.754 33.212,55.585 33.245,55.792 33.284 M68.875 33.948 C 69.035 33.990,69.298 33.990,69.458 33.948 C 69.619 33.906,69.487 33.872,69.167 33.872 C 68.846 33.872,68.715 33.906,68.875 33.948 M46.377 36.120 C 46.631 36.158,47.006 36.157,47.211 36.117 C 47.416 36.078,47.208 36.046,46.750 36.048 C 46.292 36.049,46.124 36.081,46.377 36.120 M63.833 36.219 C 63.833 36.248,64.077 36.491,64.375 36.760 L 64.917 37.250 64.427 36.708 C 63.971 36.203,63.833 36.090,63.833 36.219 M30.073 38.708 L 29.583 39.250 30.125 38.760 C 30.423 38.491,30.667 38.248,30.667 38.219 C 30.667 38.090,30.529 38.203,30.073 38.708 M29.214 40.917 C 29.216 41.375,29.248 41.543,29.286 41.289 C 29.325 41.036,29.324 40.661,29.284 40.456 C 29.244 40.251,29.213 40.458,29.214 40.917 M33.872 41.000 C 33.872 41.321,33.906 41.452,33.948 41.292 C 33.990 41.131,33.990 40.869,33.948 40.708 C 33.906 40.548,33.872 40.679,33.872 41.000 M29.667 42.719 C 29.667 42.748,29.910 42.991,30.208 43.260 L 30.750 43.750 30.260 43.208 C 29.804 42.703,29.667 42.590,29.667 42.719 M35.205 43.167 C 35.205 43.487,35.240 43.619,35.282 43.458 C 35.323 43.298,35.323 43.035,35.282 42.875 C 35.240 42.715,35.205 42.846,35.205 43.167 M47.885 43.750 C 47.886 44.300,47.917 44.505,47.954 44.205 C 47.991 43.906,47.990 43.456,47.952 43.205 C 47.914 42.955,47.884 43.200,47.885 43.750 M221.063 45.167 C 221.063 46.221,221.090 46.652,221.123 46.125 C 221.156 45.598,221.156 44.735,221.123 44.208 C 221.090 43.681,221.063 44.112,221.063 45.167 M35.205 44.667 C 35.205 44.987,35.240 45.119,35.282 44.958 C 35.323 44.798,35.323 44.535,35.282 44.375 C 35.240 44.215,35.205 44.346,35.205 44.667 M28.625 45.287 C 28.923 45.324,29.410 45.324,29.708 45.287 C 30.006 45.250,29.762 45.220,29.167 45.220 C 28.571 45.220,28.327 45.250,28.625 45.287 M40.909 47.042 L 40.250 47.750 40.958 47.091 C 41.617 46.478,41.743 46.333,41.617 46.333 C 41.590 46.333,41.271 46.652,40.909 47.042 M183.208 47.115 C 183.369 47.157,183.631 47.157,183.792 47.115 C 183.952 47.073,183.821 47.039,183.500 47.039 C 183.179 47.039,183.048 47.073,183.208 47.115 M269.375 47.115 C 269.535 47.157,269.798 47.157,269.958 47.115 C 270.119 47.073,269.987 47.039,269.667 47.039 C 269.346 47.039,269.215 47.073,269.375 47.115 M276.375 47.125 C 277.544 47.153,279.456 47.153,280.625 47.125 C 281.794 47.096,280.837 47.072,278.500 47.072 C 276.162 47.072,275.206 47.096,276.375 47.125 M359.698 47.124 C 360.862 47.153,362.812 47.153,364.032 47.125 C 365.252 47.096,364.300 47.073,361.917 47.073 C 359.533 47.073,358.535 47.096,359.698 47.124 M371.955 47.120 C 372.250 47.157,372.775 47.158,373.121 47.122 C 373.467 47.086,373.225 47.055,372.583 47.055 C 371.942 47.054,371.659 47.083,371.955 47.120 M197.209 47.750 C 197.211 48.117,197.245 48.247,197.285 48.040 C 197.324 47.832,197.323 47.532,197.281 47.373 C 197.239 47.214,197.207 47.383,197.209 47.750 M138.000 48.250 C 138.311 48.571,138.603 48.833,138.649 48.833 C 138.695 48.833,138.478 48.571,138.167 48.250 C 137.856 47.929,137.564 47.667,137.518 47.667 C 137.472 47.667,137.689 47.929,138.000 48.250 M350.500 48.052 C 350.500 48.081,350.744 48.325,351.042 48.594 L 351.583 49.083 351.094 48.542 C 350.638 48.037,350.500 47.923,350.500 48.052 M122.740 50.708 L 122.250 51.250 122.792 50.760 C 123.090 50.491,123.333 50.248,123.333 50.219 C 123.333 50.090,123.196 50.203,122.740 50.708 M16.542 50.448 C 16.702 50.490,16.965 50.490,17.125 50.448 C 17.285 50.406,17.154 50.372,16.833 50.372 C 16.512 50.372,16.381 50.406,16.542 50.448 M78.917 53.500 L 78.417 53.627 78.865 53.647 C 79.112 53.658,79.360 53.592,79.417 53.500 C 79.473 53.408,79.496 53.342,79.468 53.353 C 79.440 53.364,79.192 53.430,78.917 53.500 M37.390 55.750 C 37.391 56.483,37.420 56.763,37.456 56.371 C 37.491 55.979,37.490 55.379,37.454 55.037 C 37.419 54.696,37.390 55.017,37.390 55.750 M221.236 58.083 C 221.236 59.733,221.261 60.386,221.291 59.533 C 221.321 58.681,221.321 57.331,221.291 56.533 C 221.260 55.736,221.235 56.433,221.236 58.083 M158.205 57.333 C 158.205 57.654,158.240 57.785,158.282 57.625 C 158.323 57.465,158.323 57.202,158.282 57.042 C 158.240 56.881,158.205 57.012,158.205 57.333 M349.244 60.208 L 348.417 61.083 349.292 60.256 C 349.773 59.801,350.167 59.408,350.167 59.381 C 350.167 59.257,350.012 59.395,349.244 60.208 M330.555 67.250 C 330.555 67.892,330.586 68.134,330.622 67.788 C 330.658 67.442,330.657 66.917,330.620 66.621 C 330.583 66.325,330.554 66.608,330.555 67.250 M142.389 67.500 C 142.389 68.188,142.419 68.469,142.455 68.125 C 142.491 67.781,142.491 67.219,142.455 66.875 C 142.419 66.531,142.389 66.813,142.389 67.500 M56.579 69.042 L 55.417 70.250 56.625 69.088 C 57.747 68.008,57.909 67.833,57.787 67.833 C 57.762 67.833,57.218 68.377,56.579 69.042 M47.500 69.719 C 47.500 69.748,47.744 69.991,48.042 70.260 L 48.583 70.750 48.094 70.208 C 47.638 69.703,47.500 69.590,47.500 69.719 M317.205 70.667 C 317.205 70.987,317.240 71.119,317.282 70.958 C 317.323 70.798,317.323 70.535,317.282 70.375 C 317.240 70.215,317.205 70.346,317.205 70.667 M267.906 71.208 L 267.417 71.750 267.958 71.260 C 268.256 70.991,268.500 70.748,268.500 70.719 C 268.500 70.590,268.362 70.703,267.906 71.208 M51.208 71.615 C 51.369 71.657,51.631 71.657,51.792 71.615 C 51.952 71.573,51.821 71.539,51.500 71.539 C 51.179 71.539,51.048 71.573,51.208 71.615 M134.406 73.875 L 133.917 74.417 134.458 73.927 C 134.756 73.658,135.000 73.414,135.000 73.385 C 135.000 73.257,134.862 73.370,134.406 73.875 M39.205 75.833 C 39.205 76.154,39.240 76.285,39.282 76.125 C 39.323 75.965,39.323 75.702,39.282 75.542 C 39.240 75.381,39.205 75.512,39.205 75.833 " stroke="none" fill="#2e5d6e" fill-rule="evenodd"></path><path id="path7" d="M241.540 50.458 C 241.518 60.381,241.556 68.500,241.625 68.500 C 241.738 68.500,241.737 56.031,241.623 38.917 C 241.599 35.342,241.561 40.535,241.540 50.458 " stroke="none" fill="#848c9c" fill-rule="evenodd"></path></g></svg>